<svg width="116" height="88" viewBox="0 0 116 88" fill="none" xmlns="http://www.w3.org/2000/svg">
<g clip-path="url(#clip0_422_6249)">
<path fill-rule="evenodd" clip-rule="evenodd" d="M74.2999 31.0263V35.1623L57.9986 44.468L41.6972 35.1623V16.5458L57.9986 7.23991V-0.000488281L35.3566 12.9255V38.78L57.9986 51.7082L80.6403 38.78V27.4062L74.2999 31.0262V31.0263ZM16.2173 65.0632V66.2664C16.2173 68.4967 15.4953 70.3057 14.0519 71.6883C12.6085 73.071 10.7436 73.7611 8.45815 73.7611C6.02223 73.7611 4.0036 72.979 2.40226 71.41C0.800668 69.8408 0 67.9252 0 65.6661C0 63.39 0.79296 61.4649 2.37952 59.8884C3.9657 58.312 5.93203 57.5225 8.27764 57.5225C9.75127 57.5225 11.0971 57.8543 12.315 58.5153C13.5332 59.1788 14.4804 60.0577 15.1572 61.1595L12.4957 62.6755C12.1197 62.0363 11.5519 61.5157 10.7926 61.1136C10.0331 60.714 9.18725 60.513 8.25528 60.513C6.75146 60.513 5.51474 60.9999 4.54487 61.9732C3.575 62.9468 3.09013 64.1794 3.09013 65.6661C3.09013 67.1384 3.58258 68.354 4.56735 69.313C5.55226 70.2718 6.85681 70.7512 8.48089 70.7512C9.6833 70.7512 10.6799 70.4873 11.4694 69.9595C12.2586 69.4318 12.7962 68.7051 13.082 67.785H8.30038V65.0634H16.2173V65.0632ZM18.292 73.4487V62.2979H21.2016V73.4487H18.292ZM19.7355 60.9587C19.2542 60.9587 18.8368 60.7844 18.4836 60.4333C18.1303 60.0846 17.9536 59.6729 17.9536 59.1959C17.9536 58.7212 18.1303 58.3049 18.4836 57.9462C18.8368 57.5904 19.2542 57.4112 19.7355 57.4112C20.2318 57.4112 20.6565 57.5904 21.0098 57.9462C21.363 58.3047 21.5398 58.7212 21.5398 59.1959C21.5398 59.6729 21.363 60.0846 21.0098 60.4333C20.6565 60.7844 20.2318 60.9587 19.7355 60.9587ZM29.9301 60.2904C28.336 60.1717 27.5393 60.8013 27.5393 62.1865V62.298H29.9301V65.0634H27.5393V73.4488H24.6298V65.0634H23.0057V62.298H24.6298V62.1865C24.6298 60.6101 25.073 59.4114 25.9602 58.5953C26.8476 57.7769 28.1707 57.4187 29.9301 57.5226V60.2904ZM38.0722 65.0634H35.5233V69.7027C35.5233 70.0901 35.621 70.3711 35.8165 70.5504C36.0118 70.7295 36.2978 70.8288 36.6736 70.8506C37.0493 70.8725 37.5156 70.8699 38.0722 70.8409V73.4487C36.0722 73.6716 34.6622 73.4876 33.843 72.892C33.0232 72.2987 32.6137 71.233 32.6137 69.7027V65.0634H30.6516V62.298H32.6137V60.0435L35.5233 59.1741V62.298H38.0722V65.0634Z" fill="#CC3336"/>
<path d="M57.9984 33.0945L80.6404 20.1662V12.9258L57.9984 25.8542L48.0374 20.1662V27.4065L57.9984 33.0945Z" fill="black"/>
<path d="M21.3703 85.0092C21.8112 85.0092 22.1715 84.8809 22.4513 84.6193C22.7312 84.3603 22.8711 84.0308 22.8711 83.629C22.8711 83.2221 22.7328 82.8855 22.4566 82.6217C22.1802 82.3601 21.8215 82.2269 21.3807 82.2269C20.9887 82.2269 20.6356 82.3505 20.3208 82.5974C20.0059 82.8419 19.8485 83.169 19.8485 83.5782C19.8485 83.9922 19.9954 84.3362 20.2894 84.605C20.5832 84.8738 20.9433 85.0094 21.3703 85.0094V85.0092ZM21.3808 86.0577C20.5762 86.0577 19.9202 85.801 19.4131 85.2852C18.9056 84.7693 18.6522 84.1109 18.6522 83.3069C18.6522 82.4279 18.7849 81.7499 19.051 81.2679C19.3168 80.7861 19.8557 80.3501 20.6674 79.9555C20.8001 79.8926 20.9978 79.8029 21.2604 79.6843C21.5228 79.5682 21.7028 79.4834 21.8008 79.4301C21.8987 79.3791 22.0211 79.3042 22.1682 79.2024C22.3152 79.1032 22.4235 78.9942 22.4936 78.8804C22.5636 78.7666 22.6196 78.631 22.6616 78.4712L23.5852 78.999C23.5572 79.1515 23.5117 79.292 23.4486 79.4203C23.3857 79.5487 23.2946 79.6674 23.1758 79.7787C23.0567 79.89 22.9535 79.9796 22.8661 80.0475C22.7786 80.1177 22.6335 80.2 22.4306 80.2968C22.2276 80.3938 22.0788 80.464 21.9845 80.5052C21.89 80.5463 21.7134 80.619 21.4546 80.723C20.9928 80.9023 20.6552 81.0888 20.4418 81.2775C20.2284 81.4689 20.0799 81.7061 19.9958 81.9896C20.4156 81.5198 20.9859 81.2825 21.7065 81.2825C22.3222 81.2825 22.8592 81.5003 23.3176 81.9363C23.7756 82.3745 24.0048 82.9363 24.0048 83.6288C24.0048 84.3359 23.7617 84.917 23.2755 85.3723C22.7892 85.83 22.1577 86.0577 21.3811 86.0577H21.3808Z" fill="#919697"/>
<path d="M28.696 80.7329H29.567V85.9222H28.4546V82.6217L25.7678 85.9222H24.8969V80.7329H26.0092V84.0238L28.696 80.7329Z" fill="#919697"/>
<path d="M33.828 83.2659C34.3874 83.5152 34.6674 83.9269 34.6674 84.5009C34.6674 84.944 34.4854 85.3145 34.1219 85.6123C33.758 85.9101 33.2507 86.058 32.6 86.058C31.5433 86.058 30.8298 85.6439 30.4591 84.8133L31.3827 84.2734C31.5715 84.7916 31.9807 85.0507 32.6105 85.0507C32.9045 85.0507 33.1352 84.9901 33.3032 84.869C33.4711 84.7479 33.5551 84.5881 33.5551 84.3871C33.5551 84.2079 33.4885 84.065 33.3559 83.9561C33.2229 83.8495 33.0374 83.7964 32.7996 83.7964H32.0544V82.8084H32.6106C32.8416 82.8084 33.0217 82.7551 33.1512 82.6485C33.2805 82.5419 33.3455 82.3943 33.3455 82.2078C33.3455 82.0287 33.272 81.881 33.1247 81.7672C32.978 81.6534 32.782 81.5953 32.5371 81.5953C32.0124 81.5953 31.6485 81.8229 31.4454 82.2806L30.5221 81.7625C30.9139 80.9875 31.5784 80.6001 32.5161 80.6001C33.1038 80.6001 33.5708 80.7454 33.9172 81.0408C34.2634 81.3339 34.4369 81.6922 34.4369 82.1136C34.4369 82.6341 34.2336 83.0168 33.8282 83.2663L33.828 83.2659Z" fill="#919697"/>
<path d="M39.1278 80.7329H40.2615V85.9222H39.1278V83.8567H36.7245V85.9222H35.5909V80.7329H36.7245V82.7985H39.1278V80.7329Z" fill="#919697"/>
<path d="M42.4546 82.8929H45.5403C45.4633 82.4714 45.2865 82.1519 45.0103 81.9364C44.7339 81.7233 44.4104 81.6167 44.0395 81.6167C43.6199 81.6167 43.2699 81.7304 42.9902 81.9581C42.71 82.1857 42.5315 82.498 42.4546 82.8928V82.8929ZM42.4653 83.8058C42.5492 84.2005 42.7416 84.5032 43.0426 84.7138C43.3433 84.9245 43.7106 85.0311 44.1444 85.0311C44.746 85.0311 45.1976 84.8156 45.4985 84.3869L46.4325 84.9269C45.9146 85.6799 45.1484 86.0577 44.134 86.0577C43.2804 86.0577 42.5914 85.801 42.0667 85.2852C41.5418 84.7693 41.2795 84.118 41.2795 83.3286C41.2795 82.5537 41.5383 81.9048 42.0561 81.3817C42.5738 80.8587 43.2387 80.5996 44.0504 80.5996C44.8197 80.5996 45.4514 80.866 45.9447 81.3988C46.438 81.9315 46.6846 82.578 46.6846 83.3385C46.6846 83.4571 46.6704 83.612 46.6427 83.8058H42.4655H42.4653Z" fill="#919697"/>
<path d="M50.1269 86.0577C49.3359 86.0577 48.6768 85.7961 48.1484 85.2682C47.6204 84.7429 47.3561 84.0963 47.3561 83.3286C47.3561 82.5537 47.6204 81.9048 48.1484 81.3817C48.6768 80.8587 49.3359 80.5996 50.1269 80.5996C50.6378 80.5996 51.103 80.7207 51.5226 80.9629C51.9424 81.205 52.2575 81.5295 52.4673 81.9364L51.4911 82.4982C51.3723 82.2487 51.192 82.0525 50.9505 81.9121C50.7093 81.7692 50.4312 81.699 50.1163 81.699C49.6545 81.699 49.2677 81.8539 48.9566 82.1664C48.6451 82.4763 48.4894 82.8636 48.4894 83.3286C48.4894 83.7912 48.6451 84.1785 48.9566 84.4908C49.2678 84.8009 49.6545 84.9582 50.1163 84.9582C50.4241 84.9582 50.7021 84.8856 50.9505 84.7403C51.199 84.595 51.3861 84.4013 51.5119 84.1592L52.4882 84.7089C52.2642 85.1228 51.9424 85.4523 51.5225 85.6944C51.1029 85.9366 50.6376 86.0577 50.1268 86.0577H50.1269Z" fill="#919697"/>
<path d="M60.6326 80.7329V85.9222H59.4989V81.7912H57.0956V85.9222H55.962V80.7329H60.6326Z" fill="#919697"/>
<path d="M63.2564 84.5009C63.571 84.8132 63.9593 84.9681 64.4211 84.9681C64.8829 84.9681 65.2714 84.8132 65.5862 84.5009C65.9011 84.1909 66.0586 83.7985 66.0586 83.3289C66.0586 82.8592 65.9011 82.4669 65.5862 82.1544C65.2714 81.8445 64.883 81.6896 64.4211 81.6896C63.9594 81.6896 63.571 81.8445 63.2564 82.1544C62.9415 82.4669 62.7841 82.8592 62.7841 83.3289C62.7841 83.7985 62.9415 84.1909 63.2564 84.5009ZM64.4211 86.0579C63.6513 86.0579 62.9974 85.7962 62.4587 85.2684C61.9198 84.743 61.6503 84.0965 61.6503 83.3287C61.6503 82.5613 61.9198 81.9146 62.4587 81.3867C62.9974 80.8613 63.6513 80.5996 64.4211 80.5996C65.1979 80.5996 65.8539 80.8613 66.389 81.3867C66.9244 81.9145 67.1919 82.5611 67.1919 83.3287C67.1919 84.0963 66.9243 84.7429 66.389 85.2684C65.8538 85.7962 65.1978 86.0579 64.4211 86.0579Z" fill="#919697"/>
<path d="M69.3958 84.8639H71.5158V81.7621H69.7423V82.985C69.7423 83.726 69.6267 84.353 69.3958 84.8639ZM72.6284 84.8639H73.3316V87.3146H72.219V85.9221H68.6193V87.3146H67.5067V84.8639H68.1468C68.4686 84.416 68.6296 83.7888 68.6296 82.985V80.7329H72.6284V84.8639Z" fill="#919697"/>
<path d="M75.3572 84.5177C75.6721 84.8324 76.0674 84.9898 76.5433 84.9898C77.019 84.9898 77.4142 84.8324 77.7291 84.5177C78.044 84.203 78.2011 83.8057 78.2011 83.3287C78.2011 82.8517 78.044 82.4545 77.7291 82.1398C77.4142 81.8251 77.019 81.6677 76.5433 81.6677C76.0674 81.6677 75.6721 81.8251 75.3572 82.1398C75.0424 82.4545 74.8849 82.8518 74.8849 83.3287C74.8849 83.8058 75.0424 84.203 75.3572 84.5177ZM78.2013 80.7328H79.3351V85.922H78.2013V85.1763C77.7745 85.7646 77.1627 86.0577 76.3648 86.0577C75.6439 86.0577 75.0284 85.7938 74.5176 85.2635C74.0067 84.7357 73.7515 84.0891 73.7515 83.3287C73.7515 82.5613 74.0067 81.9146 74.5176 81.3867C75.0284 80.8613 75.6439 80.5996 76.3648 80.5996C77.1627 80.5996 77.7745 80.8903 78.2013 81.4714V80.7329V80.7328Z" fill="#919697"/>
<path d="M82.2629 84.5178C82.5778 84.8325 82.9731 84.9899 83.449 84.9899C83.9245 84.9899 84.32 84.8325 84.6349 84.5178C84.9498 84.2031 85.1072 83.8058 85.1072 83.3289C85.1072 82.8518 84.9498 82.4546 84.6349 82.1399C84.32 81.8252 83.9245 81.6678 83.449 81.6678C82.9731 81.6678 82.5778 81.8252 82.2629 82.1399C81.948 82.4546 81.7907 82.8519 81.7907 83.3289C81.7907 83.8059 81.948 84.2031 82.2629 84.5178ZM83.6274 80.5997C84.348 80.5997 84.9638 80.8637 85.4746 81.3915C85.9854 81.922 86.2408 82.5684 86.2408 83.3287C86.2408 84.0963 85.9854 84.7429 85.4746 85.2684C84.9638 85.7962 84.348 86.0579 83.6274 86.0579C82.8296 86.0579 82.2175 85.7672 81.7907 85.1861V87.9999H80.6572V80.7329H81.7907V81.4812C82.2175 80.8927 82.8296 80.5996 83.6274 80.5996V80.5997Z" fill="#919697"/>
<path d="M91.908 85.9222H90.5541L88.4026 83.525V85.9222H87.269V80.7329H88.4026V83.0285L90.4386 80.7329H91.8239L89.5152 83.2755L91.908 85.9222Z" fill="#919697"/>
<path d="M96.4739 80.7329H97.3446V85.9222H96.2322V82.6217L93.545 85.9222H92.6741V80.7329H93.7864V84.0238L96.4739 80.7329Z" fill="#919697"/>
<path d="M61.5292 57.835V73.4489H58.4391V63.322L53.9958 70.5722H53.6351L49.1918 63.3463V73.4489H46.0791V57.835H49.2819L53.8155 65.2181L58.3264 57.835H61.5292Z" fill="black"/>
<path d="M67.5289 70.1362C68.115 70.7247 68.8594 71.0177 69.7619 71.0177C70.664 71.0177 71.4119 70.7247 72.0062 70.1362C72.5998 69.5501 72.8971 68.7947 72.8971 67.8746C72.8971 66.9521 72.5998 66.1965 72.0062 65.6104C71.4119 65.022 70.6641 64.729 69.7619 64.729C68.8596 64.729 68.115 65.022 67.5289 65.6104C66.9426 66.1965 66.6491 66.9519 66.6491 67.8746C66.6491 68.7947 66.9426 69.5503 67.5289 70.1362ZM72.8969 62.2978H75.8066V73.4489H72.8969V72.134C72.0246 73.2189 70.7993 73.7612 69.2205 73.7612C67.7168 73.7612 66.4271 73.1922 65.3521 72.0564C64.2769 70.9183 63.7395 69.5236 63.7395 67.8745C63.7395 66.223 64.277 64.8282 65.3521 63.6901C66.4271 62.5544 67.7168 61.9854 69.2205 61.9854C70.7993 61.9854 72.0246 62.5277 72.8969 63.6126V62.2977V62.2978Z" fill="black"/>
<path d="M81.039 65.465C81.039 65.7628 81.238 66.0027 81.6367 66.189C82.0351 66.3755 82.5199 66.5378 83.0914 66.6806C83.6629 66.821 84.2341 67.0003 84.8058 67.2158C85.3768 67.4313 85.8619 67.7922 86.2606 68.2982C86.6589 68.8019 86.8583 69.434 86.8583 70.1944C86.8583 71.3373 86.4258 72.2187 85.5612 72.8361C84.6964 73.4536 83.6177 73.7612 82.3247 73.7612C80.0088 73.7612 78.4299 72.8773 77.5881 71.1072L80.114 69.7027C80.4448 70.669 81.1816 71.1532 82.3246 71.1532C83.362 71.1532 83.8809 70.8336 83.8809 70.1944C83.8809 69.8966 83.6813 69.6543 83.2831 69.4678C82.8843 69.2813 82.3995 69.1143 81.8283 68.9665C81.2568 68.8189 80.6856 68.6323 80.114 68.4095C79.5425 68.1867 79.0578 67.8331 78.6594 67.349C78.2607 66.8671 78.0617 66.2592 78.0617 65.5303C78.0617 64.431 78.4713 63.5642 79.2908 62.9321C80.1104 62.3001 81.1292 61.9854 82.3472 61.9854C83.2641 61.9854 84.0987 62.1886 84.8509 62.5979C85.6024 63.0071 86.1965 63.5907 86.6324 64.3486L84.1516 65.6878C83.791 64.9297 83.1892 64.5496 82.3472 64.5496C81.9711 64.5496 81.6592 64.6319 81.4111 64.7941C81.163 64.9589 81.0389 65.1815 81.0389 65.4649L81.039 65.465Z" fill="black"/>
<path d="M94.8426 65.0631H92.2941V69.7026C92.2941 70.0901 92.3919 70.371 92.5875 70.5502C92.7827 70.7293 93.0684 70.8287 93.4445 70.8504C93.82 70.8723 94.2863 70.8698 94.8426 70.8406V73.4487C92.8429 73.6714 91.4333 73.4875 90.6139 72.8916C89.7941 72.2984 89.3847 71.2328 89.3847 69.7025V65.063H87.4221V62.2976H89.3847V60.0432L92.2941 59.1738V62.2976H94.8426V65.063V65.0631Z" fill="black"/>
<path d="M98.9706 66.8263H104.722C104.556 66.066 104.215 65.5018 103.696 65.1313C103.177 64.7585 102.586 64.572 101.925 64.572C101.144 64.572 100.497 64.7704 99.986 65.1628C99.4746 65.5575 99.1357 66.112 98.9707 66.8263H98.9706ZM99.016 69.0565C99.4064 70.4537 100.466 71.1535 102.196 71.1535C103.308 71.1535 104.151 70.7808 104.722 70.0374L107.068 71.3764C105.955 72.9674 104.316 73.7616 102.15 73.7616C100.286 73.7616 98.7904 73.2045 97.6618 72.0907C96.5343 70.9744 95.9711 69.5699 95.9711 67.8748C95.9711 66.1943 96.5266 64.7922 97.6393 63.6688C98.7526 62.5475 100.18 61.9858 101.925 61.9858C103.579 61.9858 104.943 62.55 106.019 63.6808C107.094 64.8117 107.631 66.2088 107.631 67.875C107.631 68.2454 107.593 68.6402 107.519 69.0567H99.016V69.0565Z" fill="black"/>
<path d="M112.571 64.2158C112.842 63.5014 113.289 62.9662 113.913 62.6104C114.537 62.252 115.233 62.0752 116 62.0752V65.2861C115.112 65.182 114.319 65.3611 113.62 65.8213C112.921 66.2838 112.571 67.049 112.571 68.1193V73.449H109.661V62.298H112.571V64.2158Z" fill="black"/>
</g>
<defs>
<clipPath id="clip0_422_6249">
<rect width="116" height="88" fill="white"/>
</clipPath>
</defs>
</svg>
